0
SECTION
2
HEADER
9
$INSUNITS
70
4
9
$ACADVER
1
AC1014
9
$HANDSEED
5
FFFF
0
ENDSEC
0
SECTION
2
TABLES
0
TABLE
2
VPORT
5
8
100
AcDbSymbolTable
0
ENDTAB
0
TABLE
2
LTYPE
5
5
100
AcDbSymbolTable
0
LTYPE
5
14
100
AcDbSymbolTableRecord
100
AcDbLinetypeTableRecord
2
BYBLOCK
70
0
0
LTYPE
5
15
100
AcDbSymbolTableRecord
100
AcDbLinetypeTableRecord
2
BYLAYER
70
0
0
ENDTAB
0
TABLE
2
LAYER
5
2
100
AcDbSymbolTable
70
2
0
LAYER
5
50
100
AcDbSymbolTableRecord
100
AcDbLayerTableRecord
2
0
70
0
6
CONTINUOUS
0
ENDTAB
0
TABLE
2
STYLE
5
3
100
AcDbSymbolTable
70
1
0
STYLE
5
11
100
AcDbSymbolTableRecord
100
AcDbTextStyleTableRecord
2
STANDARD
70
0
0
ENDTAB
0
TABLE
2
VIEW
5
6
100
AcDbSymbolTable
70
0
0
ENDTAB
0
TABLE
2
UCS
5
7
100
AcDbSymbolTable
70
0
0
ENDTAB
0
TABLE
2
APPID
5
9
100
AcDbSymbolTable
70
2
0
APPID
5
12
100
AcDbSymbolTableRecord
100
AcDbRegAppTableRecord
2
ACAD
70
0
0
ENDTAB
0
TABLE
2
DIMSTYLE
5
A
100
AcDbSymbolTable
70
1
0
ENDTAB
0
TABLE
2
BLOCK_RECORD
5
1
100
AcDbSymbolTable
70
1
0
BLOCK_RECORD
5
1F
100
AcDbSymbolTableRecord
100
AcDbBlockTableRecord
2
*MODEL_SPACE
0
BLOCK_RECORD
5
1B
100
AcDbSymbolTableRecord
100
AcDbBlockTableRecord
2
*PAPER_SPACE
0
ENDTAB
0
ENDSEC
0
SECTION
2
BLOCKS
0
BLOCK
5
20
100
AcDbEntity
100
AcDbBlockBegin
2
*MODEL_SPACE
0
ENDBLK
5
21
100
AcDbEntity
100
AcDbBlockEnd
0
BLOCK
5
1C
100
AcDbEntity
100
AcDbBlockBegin
2
*PAPER_SPACE
0
ENDBLK
5
1D
100
AcDbEntity
100
AcDbBlockEnd
0
ENDSEC
0
SECTION
2
ENTITIES
0
LWPOLYLINE
5
100
100
AcDbEntity
8
0
100
AcDbPolyline
90
48
70
1
43
0.0
10
65.000000000000014
20
-32
10
65
20
-45
10
51.999999999999986
20
-45
10
51.999999999999986
20
-50
10
38.999999999999986
20
-50
10
38.999999999999986
20
-45
10
25.999999999999986
20
-45
10
25.999999999999986
20
-50
10
12.999999999999986
20
-50
10
12.999999999999986
20
-45
10
-1.4689104633502069e-14
20
-45
10
-1.5543122344752192e-14
20
-50
10
-13.000000000000016
20
-50
10
-13.000000000000016
20
-45
10
-26.000000000000014
20
-45
10
-26.000000000000014
20
-50
10
-39.000000000000014
20
-50
10
-39.000000000000014
20
-45
10
-52.000000000000014
20
-45
10
-52.000000000000014
20
-50
10
-75.000000000000014
20
-50.000000000000007
10
-75.000000000000014
20
-45.000000000000007
10
-65.000000000000014
20
-45.000000000000007
10
-65.000000000000014
20
-32.000000000000014
10
-75.000000000000014
20
-32.000000000000014
10
-75.000000000000014
20
-19.000000000000011
10
-65.000000000000014
20
-19.000000000000011
10
-65.000000000000014
20
-6.0000000000000098
10
-75.000000000000014
20
-6.0000000000000098
10
-75.000000000000014
20
6.9999999999999911
10
-65.000000000000014
20
6.9999999999999911
10
-65.000000000000014
20
19.999999999999993
10
-75.000000000000014
20
19.999999999999993
10
-75.000000000000014
20
32.999999999999986
10
-70.000000000000014
20
32.999999999999986
10
-70
20
45
10
70
20
45
10
70.000000000000014
20
33
10
75.000000000000014
20
33
10
75.000000000000014
20
20
10
65.000000000000014
20
20
10
65.000000000000014
20
7.0000000000000009
10
75.000000000000014
20
7.0000000000000009
10
75.000000000000014
20
-6
10
65.000000000000014
20
-5.9999999999999982
10
65.000000000000014
20
-19
10
75.000000000000014
20
-19
10
75.000000000000014
20
-32
0
LINE
5
101
100
AcDbEntity
8
0
100
AcDbLine
10
-75.000000000000014
20
-45.000000000000007
30
0
11
-75.000000000000014
21
-50.000000000000007
31
0
0
LINE
5
102
100
AcDbEntity
8
0
100
AcDbLine
10
-75.000000000000014
20
-50.000000000000007
30
0
11
-52.000000000000014
21
-50
31
0
0
LINE
5
103
100
AcDbEntity
8
0
100
AcDbLine
10
-52.000000000000014
20
-50
30
0
11
-52.000000000000014
21
-45
31
0
0
LINE
5
104
100
AcDbEntity
8
0
100
AcDbLine
10
-52.000000000000014
20
-45
30
0
11
-39.000000000000014
21
-45
31
0
0
LINE
5
105
100
AcDbEntity
8
0
100
AcDbLine
10
-39.000000000000014
20
-50
30
0
11
-39.000000000000014
21
-45
31
0
0
LINE
5
106
100
AcDbEntity
8
0
100
AcDbLine
10
-39.000000000000014
20
-50
30
0
11
-26.000000000000014
21
-50
31
0
0
LINE
5
107
100
AcDbEntity
8
0
100
AcDbLine
10
-26.000000000000014
20
-45
30
0
11
-26.000000000000014
21
-50
31
0
0
LINE
5
108
100
AcDbEntity
8
0
100
AcDbLine
10
-26.000000000000014
20
-45
30
0
11
-13.000000000000016
21
-45
31
0
0
LINE
5
109
100
AcDbEntity
8
0
100
AcDbLine
10
-13.000000000000016
20
-45
30
0
11
-13.000000000000016
21
-50
31
0
0
LINE
5
110
100
AcDbEntity
8
0
100
AcDbLine
10
-13.000000000000016
20
-50
30
0
11
-1.5543122344752192e-14
21
-50
31
0
0
LINE
5
111
100
AcDbEntity
8
0
100
AcDbLine
10
-1.5543122344752192e-14
20
-50
30
0
11
-1.4689104633502069e-14
21
-45
31
0
0
LINE
5
112
100
AcDbEntity
8
0
100
AcDbLine
10
-1.4689104633502069e-14
20
-45
30
0
11
12.999999999999986
21
-45
31
0
0
LINE
5
113
100
AcDbEntity
8
0
100
AcDbLine
10
12.999999999999986
20
-50
30
0
11
12.999999999999986
21
-45
31
0
0
LINE
5
114
100
AcDbEntity
8
0
100
AcDbLine
10
12.999999999999986
20
-50
30
0
11
25.999999999999986
21
-50
31
0
0
LINE
5
115
100
AcDbEntity
8
0
100
AcDbLine
10
25.999999999999986
20
-50
30
0
11
25.999999999999986
21
-45
31
0
0
LINE
5
116
100
AcDbEntity
8
0
100
AcDbLine
10
25.999999999999986
20
-45
30
0
11
38.999999999999986
21
-45
31
0
0
LINE
5
117
100
AcDbEntity
8
0
100
AcDbLine
10
38.999999999999986
20
-45
30
0
11
38.999999999999986
21
-50
31
0
0
LINE
5
118
100
AcDbEntity
8
0
100
AcDbLine
10
38.999999999999986
20
-50
30
0
11
51.999999999999986
21
-50
31
0
0
LINE
5
119
100
AcDbEntity
8
0
100
AcDbLine
10
51.999999999999986
20
-45
30
0
11
51.999999999999986
21
-50
31
0
0
LINE
5
120
100
AcDbEntity
8
0
100
AcDbLine
10
51.999999999999986
20
-45
30
0
11
65
21
-45
31
0
0
LINE
5
121
100
AcDbEntity
8
0
100
AcDbLine
10
65
20
-45
30
0
11
65.000000000000014
21
-32
31
0
0
LINE
5
122
100
AcDbEntity
8
0
100
AcDbLine
10
75.000000000000014
20
-32
30
0
11
65.000000000000014
21
-32
31
0
0
LINE
5
123
100
AcDbEntity
8
0
100
AcDbLine
10
75.000000000000014
20
-32
30
0
11
75.000000000000014
21
-19
31
0
0
LINE
5
124
100
AcDbEntity
8
0
100
AcDbLine
10
75.000000000000014
20
-19
30
0
11
65.000000000000014
21
-19
31
0
0
LINE
5
125
100
AcDbEntity
8
0
100
AcDbLine
10
65.000000000000014
20
-19
30
0
11
65.000000000000014
21
-5.9999999999999982
31
0
0
LINE
5
126
100
AcDbEntity
8
0
100
AcDbLine
10
65.000000000000014
20
-5.9999999999999982
30
0
11
75.000000000000014
21
-6
31
0
0
LINE
5
127
100
AcDbEntity
8
0
100
AcDbLine
10
75.000000000000014
20
-6
30
0
11
75.000000000000014
21
7.0000000000000009
31
0
0
LINE
5
128
100
AcDbEntity
8
0
100
AcDbLine
10
75.000000000000014
20
7.0000000000000009
30
0
11
65.000000000000014
21
7.0000000000000009
31
0
0
LINE
5
129
100
AcDbEntity
8
0
100
AcDbLine
10
65.000000000000014
20
7.0000000000000009
30
0
11
65.000000000000014
21
20
31
0
0
LINE
5
130
100
AcDbEntity
8
0
100
AcDbLine
10
75.000000000000014
20
20
30
0
11
65.000000000000014
21
20
31
0
0
LINE
5
131
100
AcDbEntity
8
0
100
AcDbLine
10
75.000000000000014
20
20
30
0
11
75.000000000000014
21
33
31
0
0
LINE
5
132
100
AcDbEntity
8
0
100
AcDbLine
10
70.000000000000014
20
33
30
0
11
75.000000000000014
21
33
31
0
0
LINE
5
133
100
AcDbEntity
8
0
100
AcDbLine
10
70.000000000000014
20
33
30
0
11
70
21
45
31
0
0
LINE
5
134
100
AcDbEntity
8
0
100
AcDbLine
10
-70
20
45
30
0
11
-70.000000000000014
21
32.999999999999986
31
0
0
LINE
5
135
100
AcDbEntity
8
0
100
AcDbLine
10
-70.000000000000014
20
32.999999999999986
30
0
11
-75.000000000000014
21
32.999999999999986
31
0
0
LINE
5
136
100
AcDbEntity
8
0
100
AcDbLine
10
-75.000000000000014
20
32.999999999999986
30
0
11
-75.000000000000014
21
19.999999999999993
31
0
0
LINE
5
137
100
AcDbEntity
8
0
100
AcDbLine
10
-75.000000000000014
20
19.999999999999993
30
0
11
-65.000000000000014
21
19.999999999999993
31
0
0
LINE
5
138
100
AcDbEntity
8
0
100
AcDbLine
10
-65.000000000000014
20
19.999999999999993
30
0
11
-65.000000000000014
21
6.9999999999999911
31
0
0
LINE
5
139
100
AcDbEntity
8
0
100
AcDbLine
10
-65.000000000000014
20
6.9999999999999911
30
0
11
-75.000000000000014
21
6.9999999999999911
31
0
0
LINE
5
140
100
AcDbEntity
8
0
100
AcDbLine
10
-75.000000000000014
20
-6.0000000000000098
30
0
11
-75.000000000000014
21
6.9999999999999911
31
0
0
LINE
5
141
100
AcDbEntity
8
0
100
AcDbLine
10
-75.000000000000014
20
-6.0000000000000098
30
0
11
-65.000000000000014
21
-6.0000000000000098
31
0
0
LINE
5
142
100
AcDbEntity
8
0
100
AcDbLine
10
-65.000000000000014
20
-6.0000000000000098
30
0
11
-65.000000000000014
21
-19.000000000000011
31
0
0
LINE
5
143
100
AcDbEntity
8
0
100
AcDbLine
10
-65.000000000000014
20
-19.000000000000011
30
0
11
-75.000000000000014
21
-19.000000000000011
31
0
0
LINE
5
144
100
AcDbEntity
8
0
100
AcDbLine
10
-75.000000000000014
20
-19.000000000000011
30
0
11
-75.000000000000014
21
-32.000000000000014
31
0
0
LINE
5
145
100
AcDbEntity
8
0
100
AcDbLine
10
-65.000000000000014
20
-32.000000000000014
30
0
11
-75.000000000000014
21
-32.000000000000014
31
0
0
LINE
5
146
100
AcDbEntity
8
0
100
AcDbLine
10
-65.000000000000014
20
-32.000000000000014
30
0
11
-65.000000000000014
21
-45.000000000000007
31
0
0
LINE
5
147
100
AcDbEntity
8
0
100
AcDbLine
10
-65.000000000000014
20
-45.000000000000007
30
0
11
-75.000000000000014
21
-45.000000000000007
31
0
0
LINE
5
148
100
AcDbEntity
8
0
100
AcDbLine
10
-70
20
45
30
0
11
70
21
45
31
0
0
ENDSEC
0
SECTION
2
OBJECTS
0
DICTIONARY
5
C
100
AcDbDictionary
3
ACAD_GROUP
350
D
3
ACAD_MLINESTYLE
350
17
0
DICTIONARY
5
D
100
AcDbDictionary
0
DICTIONARY
5
1A
330
C
100
AcDbDictionary
0
DICTIONARY
5
17
100
AcDbDictionary
0
ENDSEC
0
EOF
