0
SECTION
2
HEADER
9
$INSUNITS
70
4
9
$ACADVER
1
AC1014
9
$HANDSEED
5
FFFF
0
ENDSEC
0
SECTION
2
TABLES
0
TABLE
2
VPORT
5
8
100
AcDbSymbolTable
0
ENDTAB
0
TABLE
2
LTYPE
5
5
100
AcDbSymbolTable
0
LTYPE
5
14
100
AcDbSymbolTableRecord
100
AcDbLinetypeTableRecord
2
BYBLOCK
70
0
0
LTYPE
5
15
100
AcDbSymbolTableRecord
100
AcDbLinetypeTableRecord
2
BYLAYER
70
0
0
ENDTAB
0
TABLE
2
LAYER
5
2
100
AcDbSymbolTable
70
2
0
LAYER
5
50
100
AcDbSymbolTableRecord
100
AcDbLayerTableRecord
2
0
70
0
6
CONTINUOUS
0
ENDTAB
0
TABLE
2
STYLE
5
3
100
AcDbSymbolTable
70
1
0
STYLE
5
11
100
AcDbSymbolTableRecord
100
AcDbTextStyleTableRecord
2
STANDARD
70
0
0
ENDTAB
0
TABLE
2
VIEW
5
6
100
AcDbSymbolTable
70
0
0
ENDTAB
0
TABLE
2
UCS
5
7
100
AcDbSymbolTable
70
0
0
ENDTAB
0
TABLE
2
APPID
5
9
100
AcDbSymbolTable
70
2
0
APPID
5
12
100
AcDbSymbolTableRecord
100
AcDbRegAppTableRecord
2
ACAD
70
0
0
ENDTAB
0
TABLE
2
DIMSTYLE
5
A
100
AcDbSymbolTable
70
1
0
ENDTAB
0
TABLE
2
BLOCK_RECORD
5
1
100
AcDbSymbolTable
70
1
0
BLOCK_RECORD
5
1F
100
AcDbSymbolTableRecord
100
AcDbBlockTableRecord
2
*MODEL_SPACE
0
BLOCK_RECORD
5
1B
100
AcDbSymbolTableRecord
100
AcDbBlockTableRecord
2
*PAPER_SPACE
0
ENDTAB
0
ENDSEC
0
SECTION
2
BLOCKS
0
BLOCK
5
20
100
AcDbEntity
100
AcDbBlockBegin
2
*MODEL_SPACE
0
ENDBLK
5
21
100
AcDbEntity
100
AcDbBlockEnd
0
BLOCK
5
1C
100
AcDbEntity
100
AcDbBlockBegin
2
*PAPER_SPACE
0
ENDBLK
5
1D
100
AcDbEntity
100
AcDbBlockEnd
0
ENDSEC
0
SECTION
2
ENTITIES
0
LWPOLYLINE
5
100
100
AcDbEntity
8
0
100
AcDbPolyline
90
60
70
1
43
0.0
10
-13.417770222637964
20
-17.492810501727497
10
-13.417770222637964
20
-22.492810501727497
10
-26.417770222637962
20
-22.492810501727497
10
-26.417770222637962
20
-17.492810501727497
10
-39.417770222637962
20
-17.492810501727497
10
-39.417770222637962
20
-22.492810501727497
10
-52.417770222637962
20
-22.492810501727497
10
-52.417770222637962
20
-17.492810501727497
10
-65.417770222637955
20
-17.492810501727497
10
-65.417770222637955
20
-22.492810501727497
10
-75.417770222637955
20
-22.492810501727497
10
-75.417770222637955
20
-8.9928105017274973
10
-65.417770222637955
20
-8.9928105017274973
10
-65.417770222637955
20
-0.4928105017274953
10
-75.417770222637955
20
-0.4928105017274953
10
-75.417770222637955
20
8.0071894982725045
10
-65.417770222637955
20
8.0071894982725045
10
-65.417770222637955
20
16.507189498272506
10
-75.417770222637955
20
16.507189498272506
10
-75.417770222637955
20
25.007189498272506
10
-65.417770222637955
20
25.007189498272506
10
-65.417770222637955
20
33.50718949827251
10
-75.417770222637955
20
33.50718949827251
10
-75.417770222637955
20
42.00718949827251
10
-70.417770222637955
20
42.00718949827251
10
-70.417770222637955
20
50.50718949827251
10
-75.417770222637955
20
50.50718949827251
10
-75.417770222637955
20
59.00718949827251
10
-70.417770222637955
20
59.00718949827251
10
-70.417770222637955
20
72.50718949827251
10
74.582229777362059
20
72.50718949827251
10
74.582229777362059
20
59.00718949827251
10
69.582229777362059
20
59.00718949827251
10
69.582229777362059
20
50.50718949827251
10
74.582229777362059
20
50.50718949827251
10
74.582229777362059
20
42.00718949827251
10
64.582229777362059
20
42.00718949827251
10
64.582229777362059
20
33.50718949827251
10
74.582229777362059
20
33.50718949827251
10
74.582229777362059
20
25.007189498272506
10
64.582229777362059
20
25.007189498272506
10
64.582229777362059
20
16.507189498272506
10
74.582229777362059
20
16.507189498272506
10
74.582229777362059
20
8.0071894982725045
10
64.582229777362059
20
8.0071894982725045
10
64.582229777362059
20
-0.49281050172749641
10
74.582229777362059
20
-0.49281050172749641
10
74.582229777362059
20
-8.9928105017274973
10
64.582229777362059
20
-8.9928105017274973
10
64.582229777362059
20
-22.492810501727497
10
51.582229777362045
20
-22.492810501727497
10
51.582229777362045
20
-17.492810501727497
10
38.582229777362045
20
-17.492810501727497
10
38.582229777362045
20
-22.492810501727497
10
25.582229777362041
20
-22.492810501727497
10
25.582229777362041
20
-17.492810501727497
10
12.582229777362041
20
-17.492810501727497
10
12.582229777362041
20
-22.492810501727497
10
-0.41777022263795871
20
-22.492810501727497
10
-0.41777022263795871
20
-17.492810501727497
0
ENDSEC
0
SECTION
2
OBJECTS
0
DICTIONARY
5
C
100
AcDbDictionary
3
ACAD_GROUP
350
D
3
ACAD_MLINESTYLE
350
17
0
DICTIONARY
5
D
100
AcDbDictionary
0
DICTIONARY
5
1A
330
C
100
AcDbDictionary
0
DICTIONARY
5
17
100
AcDbDictionary
0
ENDSEC
0
EOF
