0
SECTION
2
HEADER
9
$INSUNITS
70
4
9
$ACADVER
1
AC1014
9
$HANDSEED
5
FFFF
0
ENDSEC
0
SECTION
2
TABLES
0
TABLE
2
VPORT
5
8
100
AcDbSymbolTable
0
ENDTAB
0
TABLE
2
LTYPE
5
5
100
AcDbSymbolTable
0
LTYPE
5
14
100
AcDbSymbolTableRecord
100
AcDbLinetypeTableRecord
2
BYBLOCK
70
0
0
LTYPE
5
15
100
AcDbSymbolTableRecord
100
AcDbLinetypeTableRecord
2
BYLAYER
70
0
0
ENDTAB
0
TABLE
2
LAYER
5
2
100
AcDbSymbolTable
70
2
0
LAYER
5
50
100
AcDbSymbolTableRecord
100
AcDbLayerTableRecord
2
0
70
0
6
CONTINUOUS
0
ENDTAB
0
TABLE
2
STYLE
5
3
100
AcDbSymbolTable
70
1
0
STYLE
5
11
100
AcDbSymbolTableRecord
100
AcDbTextStyleTableRecord
2
STANDARD
70
0
0
ENDTAB
0
TABLE
2
VIEW
5
6
100
AcDbSymbolTable
70
0
0
ENDTAB
0
TABLE
2
UCS
5
7
100
AcDbSymbolTable
70
0
0
ENDTAB
0
TABLE
2
APPID
5
9
100
AcDbSymbolTable
70
2
0
APPID
5
12
100
AcDbSymbolTableRecord
100
AcDbRegAppTableRecord
2
ACAD
70
0
0
ENDTAB
0
TABLE
2
DIMSTYLE
5
A
100
AcDbSymbolTable
70
1
0
ENDTAB
0
TABLE
2
BLOCK_RECORD
5
1
100
AcDbSymbolTable
70
1
0
BLOCK_RECORD
5
1F
100
AcDbSymbolTableRecord
100
AcDbBlockTableRecord
2
*MODEL_SPACE
0
BLOCK_RECORD
5
1B
100
AcDbSymbolTableRecord
100
AcDbBlockTableRecord
2
*PAPER_SPACE
0
ENDTAB
0
ENDSEC
0
SECTION
2
BLOCKS
0
BLOCK
5
20
100
AcDbEntity
100
AcDbBlockBegin
2
*MODEL_SPACE
0
ENDBLK
5
21
100
AcDbEntity
100
AcDbBlockEnd
0
BLOCK
5
1C
100
AcDbEntity
100
AcDbBlockBegin
2
*PAPER_SPACE
0
ENDBLK
5
1D
100
AcDbEntity
100
AcDbBlockEnd
0
ENDSEC
0
SECTION
2
ENTITIES
0
LWPOLYLINE
5
100
100
AcDbEntity
8
0
100
AcDbPolyline
90
88
70
1
43
0.0
10
-83
20
-65
10
-98.500000000000014
20
-65
10
-98.500000000000014
20
-51.999999999999993
10
-103.50000000000001
20
-51.999999999999993
10
-103.50000000000001
20
-38.999999999999993
10
-98.500000000000014
20
-38.999999999999993
10
-98.500000000000014
20
-25.999999999999993
10
-103.50000000000001
20
-25.999999999999993
10
-103.50000000000001
20
-12.999999999999993
10
-98.500000000000014
20
-12.999999999999993
10
-98.500000000000014
20
6.6613381477509392e-15
10
-103.50000000000001
20
6.6613381477509392e-15
10
-103.50000000000001
20
13.000000000000005
10
-98.500000000000014
20
13.000000000000005
10
-98.500000000000014
20
26.000000000000007
10
-103.50000000000001
20
26.000000000000007
10
-103.50000000000001
20
39
10
-98.500000000000014
20
39
10
-98.500000000000014
20
52
10
-103.50000000000001
20
52
10
-103.50000000000001
20
65
10
-98.500000000000028
20
65
10
-98.500000000000028
20
75
10
-82.000000000000028
20
75
10
-82.000000000000028
20
65
10
-65.500000000000028
20
65
10
-65.500000000000028
20
75
10
-49.000000000000021
20
75
10
-49.000000000000021
20
65
10
-32.500000000000014
20
65
10
-32.500000000000014
20
75
10
-16.000000000000018
20
75
10
-16.000000000000018
20
65
10
0.4999999999999849
20
65
10
0.4999999999999849
20
75
10
16.999999999999986
20
75
10
16.999999999999986
20
65
10
33.499999999999986
20
65
10
33.499999999999986
20
75
10
49.999999999999993
20
75
10
49.999999999999993
20
65
10
66.5
20
65
10
66.5
20
75
10
82.999999999999986
20
75
10
82.999999999999986
20
65
10
98.500000000000014
20
65
10
98.500000000000014
20
51.999999999999993
10
104.85000000000001
20
51.999999999999993
10
104.85000000000001
20
38.999999999999993
10
98.500000000000014
20
38.999999999999993
10
98.500000000000014
20
25.999999999999996
10
104.85000000000001
20
25.999999999999996
10
104.85000000000001
20
12.999999999999996
10
98.500000000000014
20
12.999999999999996
10
98.500000000000014
20
-4.4408920985006262e-15
10
104.85000000000001
20
-4.4408920985006262e-15
10
104.85000000000001
20
-13.000000000000005
10
98.500000000000014
20
-13.000000000000005
10
98.500000000000014
20
-26.000000000000007
10
104.85000000000001
20
-26.000000000000007
10
104.85000000000001
20
-39
10
98.500000000000014
20
-39
10
98.500000000000014
20
-52
10
104.85000000000001
20
-52
10
104.85000000000001
20
-65
10
98.500000000000014
20
-65
10
98.500000000000014
20
-75
10
82.000000000000014
20
-75
10
82.000000000000014
20
-65
10
65.5
20
-65
10
65.5
20
-75
10
49
20
-75
10
49
20
-65
10
32.5
20
-65
10
32.5
20
-75
10
15.999999999999998
20
-75
10
15.999999999999998
20
-65
10
-0.50000000000000266
20
-65
10
-0.50000000000000266
20
-75
10
-17.000000000000004
20
-75
10
-17.000000000000004
20
-65
10
-33.500000000000007
20
-65
10
-33.500000000000007
20
-75
10
-50
20
-75
10
-50
20
-65
10
-66.5
20
-65
10
-66.5
20
-75
10
-83
20
-75
0
LINE
5
101
100
AcDbEntity
8
0
100
AcDbLine
10
98.500000000000014
20
-75
30
0
11
82.000000000000014
21
-75
31
0
0
LINE
5
102
100
AcDbEntity
8
0
100
AcDbLine
10
82.000000000000014
20
-75
30
0
11
82.000000000000014
21
-65
31
0
0
LINE
5
103
100
AcDbEntity
8
0
100
AcDbLine
10
82.000000000000014
20
-65
30
0
11
65.5
21
-65
31
0
0
LINE
5
104
100
AcDbEntity
8
0
100
AcDbLine
10
65.5
20
-65
30
0
11
65.5
21
-75
31
0
0
LINE
5
105
100
AcDbEntity
8
0
100
AcDbLine
10
65.5
20
-75
30
0
11
49
21
-75
31
0
0
LINE
5
106
100
AcDbEntity
8
0
100
AcDbLine
10
49
20
-75
30
0
11
49
21
-65
31
0
0
LINE
5
107
100
AcDbEntity
8
0
100
AcDbLine
10
49
20
-65
30
0
11
32.5
21
-65
31
0
0
LINE
5
108
100
AcDbEntity
8
0
100
AcDbLine
10
32.5
20
-65
30
0
11
32.5
21
-75
31
0
0
LINE
5
109
100
AcDbEntity
8
0
100
AcDbLine
10
32.5
20
-75
30
0
11
15.999999999999998
21
-75
31
0
0
LINE
5
110
100
AcDbEntity
8
0
100
AcDbLine
10
15.999999999999998
20
-75
30
0
11
15.999999999999998
21
-65
31
0
0
LINE
5
111
100
AcDbEntity
8
0
100
AcDbLine
10
15.999999999999998
20
-65
30
0
11
-0.50000000000000266
21
-65
31
0
0
LINE
5
112
100
AcDbEntity
8
0
100
AcDbLine
10
-0.50000000000000266
20
-65
30
0
11
-0.50000000000000266
21
-75
31
0
0
LINE
5
113
100
AcDbEntity
8
0
100
AcDbLine
10
-0.50000000000000266
20
-75
30
0
11
-17.000000000000004
21
-75
31
0
0
LINE
5
114
100
AcDbEntity
8
0
100
AcDbLine
10
-17.000000000000004
20
-75
30
0
11
-17.000000000000004
21
-65
31
0
0
LINE
5
115
100
AcDbEntity
8
0
100
AcDbLine
10
-17.000000000000004
20
-65
30
0
11
-33.500000000000007
21
-65
31
0
0
LINE
5
116
100
AcDbEntity
8
0
100
AcDbLine
10
-33.500000000000007
20
-65
30
0
11
-33.500000000000007
21
-75
31
0
0
LINE
5
117
100
AcDbEntity
8
0
100
AcDbLine
10
-33.500000000000007
20
-75
30
0
11
-50
21
-75
31
0
0
LINE
5
118
100
AcDbEntity
8
0
100
AcDbLine
10
-50
20
-75
30
0
11
-50
21
-65
31
0
0
LINE
5
119
100
AcDbEntity
8
0
100
AcDbLine
10
-50
20
-65
30
0
11
-66.5
21
-65
31
0
0
LINE
5
120
100
AcDbEntity
8
0
100
AcDbLine
10
-66.5
20
-65
30
0
11
-66.5
21
-75
31
0
0
LINE
5
121
100
AcDbEntity
8
0
100
AcDbLine
10
-66.5
20
-75
30
0
11
-83
21
-75
31
0
0
LINE
5
122
100
AcDbEntity
8
0
100
AcDbLine
10
-83
20
-75
30
0
11
-83
21
-65
31
0
0
LINE
5
123
100
AcDbEntity
8
0
100
AcDbLine
10
-83
20
-65
30
0
11
-98.500000000000014
21
-65
31
0
0
LINE
5
124
100
AcDbEntity
8
0
100
AcDbLine
10
-98.500000000000014
20
-65
30
0
11
-98.500000000000014
21
-51.999999999999993
31
0
0
LINE
5
125
100
AcDbEntity
8
0
100
AcDbLine
10
-98.500000000000014
20
-51.999999999999993
30
0
11
-103.50000000000001
21
-51.999999999999993
31
0
0
LINE
5
126
100
AcDbEntity
8
0
100
AcDbLine
10
-103.50000000000001
20
-51.999999999999993
30
0
11
-103.50000000000001
21
-38.999999999999993
31
0
0
LINE
5
127
100
AcDbEntity
8
0
100
AcDbLine
10
-103.50000000000001
20
-38.999999999999993
30
0
11
-98.500000000000014
21
-38.999999999999993
31
0
0
LINE
5
128
100
AcDbEntity
8
0
100
AcDbLine
10
-98.500000000000014
20
-38.999999999999993
30
0
11
-98.500000000000014
21
-25.999999999999993
31
0
0
LINE
5
129
100
AcDbEntity
8
0
100
AcDbLine
10
-98.500000000000014
20
-25.999999999999993
30
0
11
-103.50000000000001
21
-25.999999999999993
31
0
0
LINE
5
130
100
AcDbEntity
8
0
100
AcDbLine
10
-103.50000000000001
20
-25.999999999999993
30
0
11
-103.50000000000001
21
-12.999999999999993
31
0
0
LINE
5
131
100
AcDbEntity
8
0
100
AcDbLine
10
-103.50000000000001
20
-12.999999999999993
30
0
11
-98.500000000000014
21
-12.999999999999993
31
0
0
LINE
5
132
100
AcDbEntity
8
0
100
AcDbLine
10
-98.500000000000014
20
-12.999999999999993
30
0
11
-98.500000000000014
21
6.6613381477509392e-15
31
0
0
LINE
5
133
100
AcDbEntity
8
0
100
AcDbLine
10
-98.500000000000014
20
6.6613381477509392e-15
30
0
11
-103.50000000000001
21
6.6613381477509392e-15
31
0
0
LINE
5
134
100
AcDbEntity
8
0
100
AcDbLine
10
-103.50000000000001
20
6.6613381477509392e-15
30
0
11
-103.50000000000001
21
13.000000000000005
31
0
0
LINE
5
135
100
AcDbEntity
8
0
100
AcDbLine
10
-103.50000000000001
20
13.000000000000005
30
0
11
-98.500000000000014
21
13.000000000000005
31
0
0
LINE
5
136
100
AcDbEntity
8
0
100
AcDbLine
10
-98.500000000000014
20
13.000000000000005
30
0
11
-98.500000000000014
21
26.000000000000007
31
0
0
LINE
5
137
100
AcDbEntity
8
0
100
AcDbLine
10
-98.500000000000014
20
26.000000000000007
30
0
11
-103.50000000000001
21
26.000000000000007
31
0
0
LINE
5
138
100
AcDbEntity
8
0
100
AcDbLine
10
-103.50000000000001
20
26.000000000000007
30
0
11
-103.50000000000001
21
39
31
0
0
LINE
5
139
100
AcDbEntity
8
0
100
AcDbLine
10
-103.50000000000001
20
39
30
0
11
-98.500000000000014
21
39
31
0
0
LINE
5
140
100
AcDbEntity
8
0
100
AcDbLine
10
-98.500000000000014
20
52
30
0
11
-98.500000000000014
21
39
31
0
0
LINE
5
141
100
AcDbEntity
8
0
100
AcDbLine
10
-98.500000000000014
20
52
30
0
11
-103.50000000000001
21
52
31
0
0
LINE
5
142
100
AcDbEntity
8
0
100
AcDbLine
10
-103.50000000000001
20
52
30
0
11
-103.50000000000001
21
65
31
0
0
LINE
5
143
100
AcDbEntity
8
0
100
AcDbLine
10
-98.500000000000028
20
65
30
0
11
-103.50000000000001
21
65
31
0
0
LINE
5
144
100
AcDbEntity
8
0
100
AcDbLine
10
-98.500000000000028
20
65
30
0
11
-98.500000000000028
21
75
31
0
0
LINE
5
145
100
AcDbEntity
8
0
100
AcDbLine
10
-98.500000000000028
20
75
30
0
11
-82.000000000000028
21
75
31
0
0
LINE
5
146
100
AcDbEntity
8
0
100
AcDbLine
10
-82.000000000000028
20
75
30
0
11
-82.000000000000028
21
65
31
0
0
LINE
5
147
100
AcDbEntity
8
0
100
AcDbLine
10
-82.000000000000028
20
65
30
0
11
-65.500000000000028
21
65
31
0
0
LINE
5
148
100
AcDbEntity
8
0
100
AcDbLine
10
-65.500000000000028
20
65
30
0
11
-65.500000000000028
21
75
31
0
0
LINE
5
149
100
AcDbEntity
8
0
100
AcDbLine
10
-65.500000000000028
20
75
30
0
11
-49.000000000000021
21
75
31
0
0
LINE
5
150
100
AcDbEntity
8
0
100
AcDbLine
10
-49.000000000000021
20
75
30
0
11
-49.000000000000021
21
65
31
0
0
LINE
5
151
100
AcDbEntity
8
0
100
AcDbLine
10
-49.000000000000021
20
65
30
0
11
-32.500000000000014
21
65
31
0
0
LINE
5
152
100
AcDbEntity
8
0
100
AcDbLine
10
-32.500000000000014
20
65
30
0
11
-32.500000000000014
21
75
31
0
0
LINE
5
153
100
AcDbEntity
8
0
100
AcDbLine
10
-32.500000000000014
20
75
30
0
11
-16.000000000000018
21
75
31
0
0
LINE
5
154
100
AcDbEntity
8
0
100
AcDbLine
10
-16.000000000000018
20
75
30
0
11
-16.000000000000018
21
65
31
0
0
LINE
5
155
100
AcDbEntity
8
0
100
AcDbLine
10
-16.000000000000018
20
65
30
0
11
0.4999999999999849
21
65
31
0
0
LINE
5
156
100
AcDbEntity
8
0
100
AcDbLine
10
0.4999999999999849
20
65
30
0
11
0.4999999999999849
21
75
31
0
0
LINE
5
157
100
AcDbEntity
8
0
100
AcDbLine
10
0.4999999999999849
20
75
30
0
11
16.999999999999986
21
75
31
0
0
LINE
5
158
100
AcDbEntity
8
0
100
AcDbLine
10
16.999999999999986
20
75
30
0
11
16.999999999999986
21
65
31
0
0
LINE
5
159
100
AcDbEntity
8
0
100
AcDbLine
10
16.999999999999986
20
65
30
0
11
33.499999999999986
21
65
31
0
0
LINE
5
160
100
AcDbEntity
8
0
100
AcDbLine
10
33.499999999999986
20
65
30
0
11
33.499999999999986
21
75
31
0
0
LINE
5
161
100
AcDbEntity
8
0
100
AcDbLine
10
33.499999999999986
20
75
30
0
11
49.999999999999993
21
75
31
0
0
LINE
5
162
100
AcDbEntity
8
0
100
AcDbLine
10
49.999999999999993
20
75
30
0
11
49.999999999999993
21
65
31
0
0
LINE
5
163
100
AcDbEntity
8
0
100
AcDbLine
10
49.999999999999993
20
65
30
0
11
66.5
21
65
31
0
0
LINE
5
164
100
AcDbEntity
8
0
100
AcDbLine
10
66.5
20
65
30
0
11
66.5
21
75
31
0
0
LINE
5
165
100
AcDbEntity
8
0
100
AcDbLine
10
66.5
20
75
30
0
11
82.999999999999986
21
75
31
0
0
LINE
5
166
100
AcDbEntity
8
0
100
AcDbLine
10
82.999999999999986
20
75
30
0
11
82.999999999999986
21
65
31
0
0
LINE
5
167
100
AcDbEntity
8
0
100
AcDbLine
10
82.999999999999986
20
65
30
0
11
98.500000000000014
21
65
31
0
0
LINE
5
168
100
AcDbEntity
8
0
100
AcDbLine
10
98.500000000000014
20
65
30
0
11
98.500000000000014
21
51.999999999999993
31
0
0
LINE
5
169
100
AcDbEntity
8
0
100
AcDbLine
10
98.500000000000014
20
51.999999999999993
30
0
11
104.85000000000001
21
51.999999999999993
31
0
0
LINE
5
170
100
AcDbEntity
8
0
100
AcDbLine
10
104.85000000000001
20
51.999999999999993
30
0
11
104.85000000000001
21
38.999999999999993
31
0
0
LINE
5
171
100
AcDbEntity
8
0
100
AcDbLine
10
104.85000000000001
20
38.999999999999993
30
0
11
98.500000000000014
21
38.999999999999993
31
0
0
LINE
5
172
100
AcDbEntity
8
0
100
AcDbLine
10
98.500000000000014
20
38.999999999999993
30
0
11
98.500000000000014
21
25.999999999999996
31
0
0
LINE
5
173
100
AcDbEntity
8
0
100
AcDbLine
10
98.500000000000014
20
25.999999999999996
30
0
11
104.85000000000001
21
25.999999999999996
31
0
0
LINE
5
174
100
AcDbEntity
8
0
100
AcDbLine
10
104.85000000000001
20
25.999999999999996
30
0
11
104.85000000000001
21
12.999999999999996
31
0
0
LINE
5
175
100
AcDbEntity
8
0
100
AcDbLine
10
104.85000000000001
20
12.999999999999996
30
0
11
98.500000000000014
21
12.999999999999996
31
0
0
LINE
5
176
100
AcDbEntity
8
0
100
AcDbLine
10
98.500000000000014
20
12.999999999999996
30
0
11
98.500000000000014
21
-4.4408920985006262e-15
31
0
0
LINE
5
177
100
AcDbEntity
8
0
100
AcDbLine
10
98.500000000000014
20
-4.4408920985006262e-15
30
0
11
104.85000000000001
21
-4.4408920985006262e-15
31
0
0
LINE
5
178
100
AcDbEntity
8
0
100
AcDbLine
10
104.85000000000001
20
-4.4408920985006262e-15
30
0
11
104.85000000000001
21
-13.000000000000005
31
0
0
LINE
5
179
100
AcDbEntity
8
0
100
AcDbLine
10
104.85000000000001
20
-13.000000000000005
30
0
11
98.500000000000014
21
-13.000000000000005
31
0
0
LINE
5
180
100
AcDbEntity
8
0
100
AcDbLine
10
98.500000000000014
20
-13.000000000000005
30
0
11
98.500000000000014
21
-26.000000000000007
31
0
0
LINE
5
181
100
AcDbEntity
8
0
100
AcDbLine
10
98.500000000000014
20
-26.000000000000007
30
0
11
104.85000000000001
21
-26.000000000000007
31
0
0
LINE
5
182
100
AcDbEntity
8
0
100
AcDbLine
10
104.85000000000001
20
-26.000000000000007
30
0
11
104.85000000000001
21
-39
31
0
0
LINE
5
183
100
AcDbEntity
8
0
100
AcDbLine
10
104.85000000000001
20
-39
30
0
11
98.500000000000014
21
-39
31
0
0
LINE
5
184
100
AcDbEntity
8
0
100
AcDbLine
10
98.500000000000014
20
-39
30
0
11
98.500000000000014
21
-52
31
0
0
LINE
5
185
100
AcDbEntity
8
0
100
AcDbLine
10
98.500000000000014
20
-52
30
0
11
104.85000000000001
21
-52
31
0
0
LINE
5
186
100
AcDbEntity
8
0
100
AcDbLine
10
104.85000000000001
20
-52
30
0
11
104.85000000000001
21
-65
31
0
0
LINE
5
187
100
AcDbEntity
8
0
100
AcDbLine
10
104.85000000000001
20
-65
30
0
11
98.500000000000014
21
-65
31
0
0
LINE
5
188
100
AcDbEntity
8
0
100
AcDbLine
10
98.500000000000014
20
-65
30
0
11
98.500000000000014
21
-75
31
0
0
ENDSEC
0
SECTION
2
OBJECTS
0
DICTIONARY
5
C
100
AcDbDictionary
3
ACAD_GROUP
350
D
3
ACAD_MLINESTYLE
350
17
0
DICTIONARY
5
D
100
AcDbDictionary
0
DICTIONARY
5
1A
330
C
100
AcDbDictionary
0
DICTIONARY
5
17
100
AcDbDictionary
0
ENDSEC
0
EOF
