0
SECTION
2
HEADER
9
$INSUNITS
70
4
9
$ACADVER
1
AC1014
9
$HANDSEED
5
FFFF
0
ENDSEC
0
SECTION
2
TABLES
0
TABLE
2
VPORT
5
8
100
AcDbSymbolTable
0
ENDTAB
0
TABLE
2
LTYPE
5
5
100
AcDbSymbolTable
0
LTYPE
5
14
100
AcDbSymbolTableRecord
100
AcDbLinetypeTableRecord
2
BYBLOCK
70
0
0
LTYPE
5
15
100
AcDbSymbolTableRecord
100
AcDbLinetypeTableRecord
2
BYLAYER
70
0
0
ENDTAB
0
TABLE
2
LAYER
5
2
100
AcDbSymbolTable
70
2
0
LAYER
5
50
100
AcDbSymbolTableRecord
100
AcDbLayerTableRecord
2
0
70
0
6
CONTINUOUS
0
ENDTAB
0
TABLE
2
STYLE
5
3
100
AcDbSymbolTable
70
1
0
STYLE
5
11
100
AcDbSymbolTableRecord
100
AcDbTextStyleTableRecord
2
STANDARD
70
0
0
ENDTAB
0
TABLE
2
VIEW
5
6
100
AcDbSymbolTable
70
0
0
ENDTAB
0
TABLE
2
UCS
5
7
100
AcDbSymbolTable
70
0
0
ENDTAB
0
TABLE
2
APPID
5
9
100
AcDbSymbolTable
70
2
0
APPID
5
12
100
AcDbSymbolTableRecord
100
AcDbRegAppTableRecord
2
ACAD
70
0
0
ENDTAB
0
TABLE
2
DIMSTYLE
5
A
100
AcDbSymbolTable
70
1
0
ENDTAB
0
TABLE
2
BLOCK_RECORD
5
1
100
AcDbSymbolTable
70
1
0
BLOCK_RECORD
5
1F
100
AcDbSymbolTableRecord
100
AcDbBlockTableRecord
2
*MODEL_SPACE
0
BLOCK_RECORD
5
1B
100
AcDbSymbolTableRecord
100
AcDbBlockTableRecord
2
*PAPER_SPACE
0
ENDTAB
0
ENDSEC
0
SECTION
2
BLOCKS
0
BLOCK
5
20
100
AcDbEntity
100
AcDbBlockBegin
2
*MODEL_SPACE
0
ENDBLK
5
21
100
AcDbEntity
100
AcDbBlockEnd
0
BLOCK
5
1C
100
AcDbEntity
100
AcDbBlockBegin
2
*PAPER_SPACE
0
ENDBLK
5
1D
100
AcDbEntity
100
AcDbBlockEnd
0
ENDSEC
0
SECTION
2
ENTITIES
0
LWPOLYLINE
5
100
100
AcDbEntity
8
0
100
AcDbPolyline
90
54
70
1
43
0.0
10
-16.249366805323469
20
-54.649999999999999
10
-32.499366805323469
20
-54.649999999999999
10
-32.499366805323469
20
-49.649999999999999
10
-48.749366805323469
20
-49.649999999999999
10
-48.749366805323469
20
-54.649999999999999
10
-71.34936680532347
20
-54.649999999999999
10
-71.34936680532347
20
-41.150000000000006
10
-64.999366805323461
20
-41.150000000000006
10
-64.999366805323461
20
-32.649999999999999
10
-71.34936680532347
20
-32.649999999999999
10
-71.34936680532347
20
-24.149999999999999
10
-64.999366805323461
20
-24.149999999999999
10
-64.999366805323461
20
-15.649999999999999
10
-71.34936680532347
20
-15.649999999999999
10
-71.34936680532347
20
-7.1499999999999986
10
-64.999366805323461
20
-7.1499999999999986
10
-64.999366805323461
20
1.3500000000000023
10
-71.34936680532347
20
1.3500000000000023
10
-71.34936680532347
20
9.8500000000000032
10
-64.999366805323461
20
9.8500000000000032
10
-64.999366805323461
20
18.350000000000005
10
-71.34936680532347
20
18.350000000000005
10
-71.34936680532347
20
26.850000000000005
10
-64.999366805323461
20
26.850000000000005
10
-64.999366805323461
20
40.350000000000001
10
71.350633194676547
20
40.350000000000001
10
71.350633194676547
20
26.850000000000005
10
65.000633194676539
20
26.850000000000005
10
65.000633194676539
20
18.350000000000005
10
71.350633194676547
20
18.350000000000005
10
71.350633194676547
20
9.8500000000000032
10
65.000633194676539
20
9.8500000000000032
10
65.000633194676539
20
1.3500000000000023
10
71.350633194676547
20
1.3500000000000023
10
71.350633194676547
20
-7.1499999999999986
10
65.000633194676539
20
-7.1499999999999986
10
65.000633194676539
20
-15.649999999999999
10
71.350633194676547
20
-15.649999999999999
10
71.350633194676547
20
-24.149999999999999
10
65.000633194676539
20
-24.149999999999999
10
65.000633194676539
20
-32.649999999999999
10
71.350633194676547
20
-32.649999999999999
10
71.350633194676547
20
-41.150000000000006
10
65.000633194676539
20
-41.150000000000006
10
65.000633194676539
20
-49.649999999999999
10
48.750633194676531
20
-49.649999999999999
10
48.750633194676531
20
-54.649999999999999
10
32.500633194676531
20
-54.649999999999999
10
32.500633194676531
20
-49.649999999999999
10
16.250633194676531
20
-49.649999999999999
10
16.250633194676531
20
-54.649999999999999
10
0.00063319467653207928
20
-54.649999999999999
10
0.00063319467653144557
20
-49.649999999999999
10
-16.249366805323469
20
-49.649999999999999
0
ENDSEC
0
SECTION
2
OBJECTS
0
DICTIONARY
5
C
100
AcDbDictionary
3
ACAD_GROUP
350
D
3
ACAD_MLINESTYLE
350
17
0
DICTIONARY
5
D
100
AcDbDictionary
0
DICTIONARY
5
1A
330
C
100
AcDbDictionary
0
DICTIONARY
5
17
100
AcDbDictionary
0
ENDSEC
0
EOF
