0
SECTION
2
HEADER
9
$INSUNITS
70
4
9
$ACADVER
1
AC1014
9
$HANDSEED
5
FFFF
0
ENDSEC
0
SECTION
2
TABLES
0
TABLE
2
VPORT
5
8
100
AcDbSymbolTable
0
ENDTAB
0
TABLE
2
LTYPE
5
5
100
AcDbSymbolTable
0
LTYPE
5
14
100
AcDbSymbolTableRecord
100
AcDbLinetypeTableRecord
2
BYBLOCK
70
0
0
LTYPE
5
15
100
AcDbSymbolTableRecord
100
AcDbLinetypeTableRecord
2
BYLAYER
70
0
0
ENDTAB
0
TABLE
2
LAYER
5
2
100
AcDbSymbolTable
70
2
0
LAYER
5
50
100
AcDbSymbolTableRecord
100
AcDbLayerTableRecord
2
0
70
0
6
CONTINUOUS
0
ENDTAB
0
TABLE
2
STYLE
5
3
100
AcDbSymbolTable
70
1
0
STYLE
5
11
100
AcDbSymbolTableRecord
100
AcDbTextStyleTableRecord
2
STANDARD
70
0
0
ENDTAB
0
TABLE
2
VIEW
5
6
100
AcDbSymbolTable
70
0
0
ENDTAB
0
TABLE
2
UCS
5
7
100
AcDbSymbolTable
70
0
0
ENDTAB
0
TABLE
2
APPID
5
9
100
AcDbSymbolTable
70
2
0
APPID
5
12
100
AcDbSymbolTableRecord
100
AcDbRegAppTableRecord
2
ACAD
70
0
0
ENDTAB
0
TABLE
2
DIMSTYLE
5
A
100
AcDbSymbolTable
70
1
0
ENDTAB
0
TABLE
2
BLOCK_RECORD
5
1
100
AcDbSymbolTable
70
1
0
BLOCK_RECORD
5
1F
100
AcDbSymbolTableRecord
100
AcDbBlockTableRecord
2
*MODEL_SPACE
0
BLOCK_RECORD
5
1B
100
AcDbSymbolTableRecord
100
AcDbBlockTableRecord
2
*PAPER_SPACE
0
ENDTAB
0
ENDSEC
0
SECTION
2
BLOCKS
0
BLOCK
5
20
100
AcDbEntity
100
AcDbBlockBegin
2
*MODEL_SPACE
0
ENDBLK
5
21
100
AcDbEntity
100
AcDbBlockEnd
0
BLOCK
5
1C
100
AcDbEntity
100
AcDbBlockBegin
2
*PAPER_SPACE
0
ENDBLK
5
1D
100
AcDbEntity
100
AcDbBlockEnd
0
ENDSEC
0
SECTION
2
ENTITIES
0
LWPOLYLINE
5
100
100
AcDbEntity
8
0
100
AcDbPolyline
90
58
70
1
43
0.0
10
98.500000000000014
20
-11.000000000000004
10
103.50000000000001
20
-11.000000000000004
10
103.50000000000001
20
-19.500000000000004
10
98.500000000000014
20
-19.500000000000004
10
98.500000000000014
20
-28.000000000000004
10
103.50000000000001
20
-28.000000000000004
10
103.50000000000001
20
-36.5
10
98.500000000000014
20
-36.5
10
98.500000000000028
20
-45
10
82.000000000000028
20
-45
10
82.000000000000028
20
-50
10
65.500000000000028
20
-50
10
65.500000000000028
20
-45
10
49.000000000000028
20
-45
10
49.000000000000028
20
-50
10
32.500000000000028
20
-50
10
32.500000000000028
20
-45
10
16.000000000000025
20
-45
10
16.000000000000025
20
-50
10
-0.49999999999997602
20
-50
10
-0.49999999999997602
20
-45
10
-16.999999999999979
20
-45
10
-16.999999999999979
20
-50
10
-33.499999999999979
20
-50
10
-33.499999999999979
20
-45
10
-49.999999999999986
20
-45
10
-49.999999999999986
20
-50
10
-66.499999999999986
20
-50
10
-66.499999999999986
20
-45
10
-82.999999999999986
20
-45
10
-82.999999999999986
20
-50
10
-98.5
20
-50
10
-98.5
20
-45
10
-103.5
20
-45
10
-103.50000000000001
20
-32
10
-98.500000000000014
20
-32
10
-98.500000000000014
20
-19
10
-103.50000000000001
20
-19
10
-103.50000000000001
20
-6.0000000000000009
10
-98.500000000000014
20
-6.0000000000000009
10
-98.500000000000014
20
7
10
-103.50000000000001
20
7
10
-103.50000000000001
20
20
10
-98.500000000000014
20
20
10
-98.500000000000014
20
33
10
-103.50000000000001
20
33
10
-103.50000000000001
20
45
10
103.50000000000001
20
45
10
103.50000000000001
20
31.500000000000004
10
98.500000000000014
20
31.500000000000004
10
98.500000000000014
20
23.000000000000004
10
103.50000000000001
20
23.000000000000004
10
103.50000000000001
20
14.5
10
98.500000000000014
20
14.499999999999996
10
98.500000000000014
20
5.9999999999999982
10
103.50000000000001
20
6.0000000000000009
10
103.50000000000001
20
-2.5000000000000004
10
98.500000000000014
20
-2.5
0
LINE
5
101
100
AcDbEntity
8
0
100
AcDbLine
10
103.50000000000001
20
45
30
0
11
103.50000000000001
21
31.500000000000004
31
0
0
LINE
5
102
100
AcDbEntity
8
0
100
AcDbLine
10
103.50000000000001
20
31.500000000000004
30
0
11
98.500000000000014
21
31.500000000000004
31
0
0
LINE
5
103
100
AcDbEntity
8
0
100
AcDbLine
10
98.500000000000014
20
31.500000000000004
30
0
11
98.500000000000014
21
23.000000000000004
31
0
0
LINE
5
104
100
AcDbEntity
8
0
100
AcDbLine
10
98.500000000000014
20
23.000000000000004
30
0
11
103.50000000000001
21
23.000000000000004
31
0
0
LINE
5
105
100
AcDbEntity
8
0
100
AcDbLine
10
103.50000000000001
20
23.000000000000004
30
0
11
103.50000000000001
21
14.5
31
0
0
LINE
5
106
100
AcDbEntity
8
0
100
AcDbLine
10
98.500000000000014
20
14.499999999999996
30
0
11
103.50000000000001
21
14.5
31
0
0
LINE
5
107
100
AcDbEntity
8
0
100
AcDbLine
10
98.500000000000014
20
14.499999999999996
30
0
11
98.500000000000014
21
5.9999999999999982
31
0
0
LINE
5
108
100
AcDbEntity
8
0
100
AcDbLine
10
98.500000000000014
20
5.9999999999999982
30
0
11
103.50000000000001
21
6.0000000000000009
31
0
0
LINE
5
109
100
AcDbEntity
8
0
100
AcDbLine
10
103.50000000000001
20
-2.5000000000000004
30
0
11
103.50000000000001
21
6.0000000000000009
31
0
0
LINE
5
110
100
AcDbEntity
8
0
100
AcDbLine
10
103.50000000000001
20
-2.5000000000000004
30
0
11
98.500000000000014
21
-2.5
31
0
0
LINE
5
111
100
AcDbEntity
8
0
100
AcDbLine
10
98.500000000000014
20
-2.5
30
0
11
98.500000000000014
21
-11.000000000000004
31
0
0
LINE
5
112
100
AcDbEntity
8
0
100
AcDbLine
10
98.500000000000014
20
-11.000000000000004
30
0
11
103.50000000000001
21
-11.000000000000004
31
0
0
LINE
5
113
100
AcDbEntity
8
0
100
AcDbLine
10
103.50000000000001
20
-11.000000000000004
30
0
11
103.50000000000001
21
-19.500000000000004
31
0
0
LINE
5
114
100
AcDbEntity
8
0
100
AcDbLine
10
103.50000000000001
20
-19.500000000000004
30
0
11
98.500000000000014
21
-19.500000000000004
31
0
0
LINE
5
115
100
AcDbEntity
8
0
100
AcDbLine
10
98.500000000000014
20
-19.500000000000004
30
0
11
98.500000000000014
21
-28.000000000000004
31
0
0
LINE
5
116
100
AcDbEntity
8
0
100
AcDbLine
10
98.500000000000014
20
-28.000000000000004
30
0
11
103.50000000000001
21
-28.000000000000004
31
0
0
LINE
5
117
100
AcDbEntity
8
0
100
AcDbLine
10
103.50000000000001
20
-36.5
30
0
11
103.50000000000001
21
-28.000000000000004
31
0
0
LINE
5
118
100
AcDbEntity
8
0
100
AcDbLine
10
103.50000000000001
20
-36.5
30
0
11
98.500000000000014
21
-36.5
31
0
0
LINE
5
119
100
AcDbEntity
8
0
100
AcDbLine
10
98.500000000000028
20
-45
30
0
11
98.500000000000014
21
-36.5
31
0
0
LINE
5
120
100
AcDbEntity
8
0
100
AcDbLine
10
98.500000000000028
20
-45
30
0
11
82.000000000000028
21
-45
31
0
0
LINE
5
121
100
AcDbEntity
8
0
100
AcDbLine
10
82.000000000000028
20
-45
30
0
11
82.000000000000028
21
-50
31
0
0
LINE
5
122
100
AcDbEntity
8
0
100
AcDbLine
10
82.000000000000028
20
-50
30
0
11
65.500000000000028
21
-50
31
0
0
LINE
5
123
100
AcDbEntity
8
0
100
AcDbLine
10
65.500000000000028
20
-45
30
0
11
65.500000000000028
21
-50
31
0
0
LINE
5
124
100
AcDbEntity
8
0
100
AcDbLine
10
65.500000000000028
20
-45
30
0
11
49.000000000000028
21
-45
31
0
0
LINE
5
125
100
AcDbEntity
8
0
100
AcDbLine
10
49.000000000000028
20
-45
30
0
11
49.000000000000028
21
-50
31
0
0
LINE
5
126
100
AcDbEntity
8
0
100
AcDbLine
10
49.000000000000028
20
-50
30
0
11
32.500000000000028
21
-50
31
0
0
LINE
5
127
100
AcDbEntity
8
0
100
AcDbLine
10
32.500000000000028
20
-50
30
0
11
32.500000000000028
21
-45
31
0
0
LINE
5
128
100
AcDbEntity
8
0
100
AcDbLine
10
32.500000000000028
20
-45
30
0
11
16.000000000000025
21
-45
31
0
0
LINE
5
129
100
AcDbEntity
8
0
100
AcDbLine
10
16.000000000000025
20
-45
30
0
11
16.000000000000025
21
-50
31
0
0
LINE
5
130
100
AcDbEntity
8
0
100
AcDbLine
10
16.000000000000025
20
-50
30
0
11
-0.49999999999997602
21
-50
31
0
0
LINE
5
131
100
AcDbEntity
8
0
100
AcDbLine
10
-0.49999999999997602
20
-50
30
0
11
-0.49999999999997602
21
-45
31
0
0
LINE
5
132
100
AcDbEntity
8
0
100
AcDbLine
10
-0.49999999999997602
20
-45
30
0
11
-16.999999999999979
21
-45
31
0
0
LINE
5
133
100
AcDbEntity
8
0
100
AcDbLine
10
-16.999999999999979
20
-45
30
0
11
-16.999999999999979
21
-50
31
0
0
LINE
5
134
100
AcDbEntity
8
0
100
AcDbLine
10
-16.999999999999979
20
-50
30
0
11
-33.499999999999979
21
-50
31
0
0
LINE
5
135
100
AcDbEntity
8
0
100
AcDbLine
10
-33.499999999999979
20
-50
30
0
11
-33.499999999999979
21
-45
31
0
0
LINE
5
136
100
AcDbEntity
8
0
100
AcDbLine
10
-33.499999999999979
20
-45
30
0
11
-49.999999999999986
21
-45
31
0
0
LINE
5
137
100
AcDbEntity
8
0
100
AcDbLine
10
-49.999999999999986
20
-45
30
0
11
-49.999999999999986
21
-50
31
0
0
LINE
5
138
100
AcDbEntity
8
0
100
AcDbLine
10
-49.999999999999986
20
-50
30
0
11
-66.499999999999986
21
-50
31
0
0
LINE
5
139
100
AcDbEntity
8
0
100
AcDbLine
10
-66.499999999999986
20
-50
30
0
11
-66.499999999999986
21
-45
31
0
0
LINE
5
140
100
AcDbEntity
8
0
100
AcDbLine
10
-66.499999999999986
20
-45
30
0
11
-82.999999999999986
21
-45
31
0
0
LINE
5
141
100
AcDbEntity
8
0
100
AcDbLine
10
-82.999999999999986
20
-45
30
0
11
-82.999999999999986
21
-50
31
0
0
LINE
5
142
100
AcDbEntity
8
0
100
AcDbLine
10
-82.999999999999986
20
-50
30
0
11
-98.5
21
-50
31
0
0
LINE
5
143
100
AcDbEntity
8
0
100
AcDbLine
10
-98.5
20
-50
30
0
11
-98.5
21
-45
31
0
0
LINE
5
144
100
AcDbEntity
8
0
100
AcDbLine
10
-103.5
20
-45
30
0
11
-98.5
21
-45
31
0
0
LINE
5
145
100
AcDbEntity
8
0
100
AcDbLine
10
-103.5
20
-45
30
0
11
-103.50000000000001
21
-32
31
0
0
LINE
5
146
100
AcDbEntity
8
0
100
AcDbLine
10
-103.50000000000001
20
-32
30
0
11
-98.500000000000014
21
-32
31
0
0
LINE
5
147
100
AcDbEntity
8
0
100
AcDbLine
10
-98.500000000000014
20
-32
30
0
11
-98.500000000000014
21
-19
31
0
0
LINE
5
148
100
AcDbEntity
8
0
100
AcDbLine
10
-98.500000000000014
20
-19
30
0
11
-103.50000000000001
21
-19
31
0
0
LINE
5
149
100
AcDbEntity
8
0
100
AcDbLine
10
-103.50000000000001
20
-19
30
0
11
-103.50000000000001
21
-6.0000000000000009
31
0
0
LINE
5
150
100
AcDbEntity
8
0
100
AcDbLine
10
-103.50000000000001
20
-6.0000000000000009
30
0
11
-98.500000000000014
21
-6.0000000000000009
31
0
0
LINE
5
151
100
AcDbEntity
8
0
100
AcDbLine
10
-98.500000000000014
20
-6.0000000000000009
30
0
11
-98.500000000000014
21
7
31
0
0
LINE
5
152
100
AcDbEntity
8
0
100
AcDbLine
10
-98.500000000000014
20
7
30
0
11
-103.50000000000001
21
7
31
0
0
LINE
5
153
100
AcDbEntity
8
0
100
AcDbLine
10
-103.50000000000001
20
7
30
0
11
-103.50000000000001
21
20
31
0
0
LINE
5
154
100
AcDbEntity
8
0
100
AcDbLine
10
-103.50000000000001
20
20
30
0
11
-98.500000000000014
21
20
31
0
0
LINE
5
155
100
AcDbEntity
8
0
100
AcDbLine
10
-98.500000000000014
20
20
30
0
11
-98.500000000000014
21
33
31
0
0
LINE
5
156
100
AcDbEntity
8
0
100
AcDbLine
10
-98.500000000000014
20
33
30
0
11
-103.50000000000001
21
33
31
0
0
LINE
5
157
100
AcDbEntity
8
0
100
AcDbLine
10
-103.50000000000001
20
33
30
0
11
-103.50000000000001
21
45
31
0
0
LINE
5
158
100
AcDbEntity
8
0
100
AcDbLine
10
-103.50000000000001
20
45
30
0
11
103.50000000000001
21
45
31
0
0
ENDSEC
0
SECTION
2
OBJECTS
0
DICTIONARY
5
C
100
AcDbDictionary
3
ACAD_GROUP
350
D
3
ACAD_MLINESTYLE
350
17
0
DICTIONARY
5
D
100
AcDbDictionary
0
DICTIONARY
5
1A
330
C
100
AcDbDictionary
0
DICTIONARY
5
17
100
AcDbDictionary
0
ENDSEC
0
EOF
