0
SECTION
2
HEADER
9
$INSUNITS
70
4
9
$ACADVER
1
AC1014
9
$HANDSEED
5
FFFF
0
ENDSEC
0
SECTION
2
TABLES
0
TABLE
2
VPORT
5
8
100
AcDbSymbolTable
0
ENDTAB
0
TABLE
2
LTYPE
5
5
100
AcDbSymbolTable
0
LTYPE
5
14
100
AcDbSymbolTableRecord
100
AcDbLinetypeTableRecord
2
BYBLOCK
70
0
0
LTYPE
5
15
100
AcDbSymbolTableRecord
100
AcDbLinetypeTableRecord
2
BYLAYER
70
0
0
ENDTAB
0
TABLE
2
LAYER
5
2
100
AcDbSymbolTable
70
2
0
LAYER
5
50
100
AcDbSymbolTableRecord
100
AcDbLayerTableRecord
2
0
70
0
6
CONTINUOUS
0
ENDTAB
0
TABLE
2
STYLE
5
3
100
AcDbSymbolTable
70
1
0
STYLE
5
11
100
AcDbSymbolTableRecord
100
AcDbTextStyleTableRecord
2
STANDARD
70
0
0
ENDTAB
0
TABLE
2
VIEW
5
6
100
AcDbSymbolTable
70
0
0
ENDTAB
0
TABLE
2
UCS
5
7
100
AcDbSymbolTable
70
0
0
ENDTAB
0
TABLE
2
APPID
5
9
100
AcDbSymbolTable
70
2
0
APPID
5
12
100
AcDbSymbolTableRecord
100
AcDbRegAppTableRecord
2
ACAD
70
0
0
ENDTAB
0
TABLE
2
DIMSTYLE
5
A
100
AcDbSymbolTable
70
1
0
ENDTAB
0
TABLE
2
BLOCK_RECORD
5
1
100
AcDbSymbolTable
70
1
0
BLOCK_RECORD
5
1F
100
AcDbSymbolTableRecord
100
AcDbBlockTableRecord
2
*MODEL_SPACE
0
BLOCK_RECORD
5
1B
100
AcDbSymbolTableRecord
100
AcDbBlockTableRecord
2
*PAPER_SPACE
0
ENDTAB
0
ENDSEC
0
SECTION
2
BLOCKS
0
BLOCK
5
20
100
AcDbEntity
100
AcDbBlockBegin
2
*MODEL_SPACE
0
ENDBLK
5
21
100
AcDbEntity
100
AcDbBlockEnd
0
BLOCK
5
1C
100
AcDbEntity
100
AcDbBlockBegin
2
*PAPER_SPACE
0
ENDBLK
5
1D
100
AcDbEntity
100
AcDbBlockEnd
0
ENDSEC
0
SECTION
2
ENTITIES
0
CIRCLE
5
100
100
AcDbEntity
8
0
100
AcDbCircle
10
61.499999999999986
20
-8.9999999999999893
30
0
40
24.000000000000004
210
0
220
0
230
1
0
LWPOLYLINE
5
101
100
AcDbEntity
8
0
100
AcDbPolyline
90
58
70
1
43
0.0
10
98.500000000000014
20
-2.4999999999999778
10
104.85000000000001
20
-2.4999999999999778
10
104.85000000000001
20
-10.999999999999979
10
98.500000000000014
20
-10.999999999999979
10
98.500000000000014
20
-19.499999999999979
10
104.85000000000001
20
-19.499999999999979
10
104.85000000000001
20
-27.999999999999979
10
98.500000000000014
20
-27.999999999999979
10
98.500000000000014
20
-36.499999999999979
10
104.85000000000001
20
-36.499999999999979
10
104.85000000000001
20
-49.999999999999986
10
83
20
-49.999999999999993
10
83
20
-44.999999999999993
10
66.500000000000028
20
-44.999999999999993
10
66.500000000000028
20
-49.999999999999993
10
50.000000000000014
20
-49.999999999999993
10
50.000000000000014
20
-44.999999999999993
10
33.500000000000007
20
-45
10
33.500000000000007
20
-50
10
17.000000000000014
20
-50
10
17.000000000000014
20
-45
10
0.50000000000001066
20
-45
10
0.50000000000001155
20
-50
10
-15.999999999999989
20
-50
10
-15.999999999999989
20
-45
10
-32.499999999999993
20
-45
10
-32.499999999999993
20
-50
10
-48.999999999999993
20
-50.000000000000007
10
-48.999999999999993
20
-45.000000000000007
10
-65.5
20
-45.000000000000007
10
-65.5
20
-50.000000000000007
10
-82.000000000000014
20
-50.000000000000007
10
-82.000000000000014
20
-45.000000000000007
10
-98.500000000000014
20
-45.000000000000007
10
-98.500000000000014
20
-50.000000000000007
10
-103.50000000000001
20
-50.000000000000014
10
-103.50000000000001
20
-31.999999999999993
10
-98.500000000000014
20
-31.999999999999993
10
-98.500000000000014
20
-18.999999999999993
10
-103.50000000000001
20
-18.999999999999993
10
-103.50000000000001
20
-5.9999999999999964
10
-98.500000000000014
20
-5.9999999999999964
10
-98.500000000000014
20
7.0000000000000036
10
-103.50000000000001
20
7.0000000000000036
10
-103.50000000000001
20
20.000000000000004
10
-98.500000000000014
20
20.000000000000004
10
-98.500000000000014
20
33.000000000000007
10
-103.50000000000001
20
33.000000000000007
10
-103.50000000000001
20
44.999999999999993
10
98.500000000000014
20
45.000000000000014
10
98.500000000000014
20
31.500000000000025
10
104.85000000000001
20
31.500000000000025
10
104.85000000000001
20
23.000000000000025
10
98.500000000000014
20
23.000000000000025
10
98.500000000000014
20
14.500000000000025
10
104.85000000000001
20
14.500000000000025
10
104.85000000000001
20
6.0000000000000231
10
98.500000000000014
20
6.0000000000000231
0
LINE
5
102
100
AcDbEntity
8
0
100
AcDbLine
10
98.500000000000014
20
45.000000000000014
30
0
11
98.500000000000014
21
31.500000000000025
31
0
0
LINE
5
103
100
AcDbEntity
8
0
100
AcDbLine
10
98.500000000000014
20
31.500000000000025
30
0
11
104.85000000000001
21
31.500000000000025
31
0
0
LINE
5
104
100
AcDbEntity
8
0
100
AcDbLine
10
104.85000000000001
20
31.500000000000025
30
0
11
104.85000000000001
21
23.000000000000025
31
0
0
LINE
5
105
100
AcDbEntity
8
0
100
AcDbLine
10
104.85000000000001
20
23.000000000000025
30
0
11
98.500000000000014
21
23.000000000000025
31
0
0
LINE
5
106
100
AcDbEntity
8
0
100
AcDbLine
10
98.500000000000014
20
14.500000000000025
30
0
11
98.500000000000014
21
23.000000000000025
31
0
0
LINE
5
107
100
AcDbEntity
8
0
100
AcDbLine
10
98.500000000000014
20
14.500000000000025
30
0
11
104.85000000000001
21
14.500000000000025
31
0
0
LINE
5
108
100
AcDbEntity
8
0
100
AcDbLine
10
104.85000000000001
20
6.0000000000000231
30
0
11
104.85000000000001
21
14.500000000000025
31
0
0
LINE
5
109
100
AcDbEntity
8
0
100
AcDbLine
10
104.85000000000001
20
6.0000000000000231
30
0
11
98.500000000000014
21
6.0000000000000231
31
0
0
LINE
5
110
100
AcDbEntity
8
0
100
AcDbLine
10
98.500000000000014
20
6.0000000000000231
30
0
11
98.500000000000014
21
-2.4999999999999778
31
0
0
LINE
5
111
100
AcDbEntity
8
0
100
AcDbLine
10
98.500000000000014
20
-2.4999999999999778
30
0
11
104.85000000000001
21
-2.4999999999999778
31
0
0
LINE
5
112
100
AcDbEntity
8
0
100
AcDbLine
10
104.85000000000001
20
-2.4999999999999778
30
0
11
104.85000000000001
21
-10.999999999999979
31
0
0
LINE
5
113
100
AcDbEntity
8
0
100
AcDbLine
10
104.85000000000001
20
-10.999999999999979
30
0
11
98.500000000000014
21
-10.999999999999979
31
0
0
LINE
5
114
100
AcDbEntity
8
0
100
AcDbLine
10
98.500000000000014
20
-10.999999999999979
30
0
11
98.500000000000014
21
-19.499999999999979
31
0
0
LINE
5
115
100
AcDbEntity
8
0
100
AcDbLine
10
98.500000000000014
20
-19.499999999999979
30
0
11
104.85000000000001
21
-19.499999999999979
31
0
0
LINE
5
116
100
AcDbEntity
8
0
100
AcDbLine
10
104.85000000000001
20
-27.999999999999979
30
0
11
104.85000000000001
21
-19.499999999999979
31
0
0
LINE
5
117
100
AcDbEntity
8
0
100
AcDbLine
10
104.85000000000001
20
-27.999999999999979
30
0
11
98.500000000000014
21
-27.999999999999979
31
0
0
LINE
5
118
100
AcDbEntity
8
0
100
AcDbLine
10
98.500000000000014
20
-27.999999999999979
30
0
11
98.500000000000014
21
-36.499999999999979
31
0
0
LINE
5
119
100
AcDbEntity
8
0
100
AcDbLine
10
98.500000000000014
20
-36.499999999999979
30
0
11
104.85000000000001
21
-36.499999999999979
31
0
0
LINE
5
120
100
AcDbEntity
8
0
100
AcDbLine
10
104.85000000000001
20
-36.499999999999979
30
0
11
104.85000000000001
21
-49.999999999999986
31
0
0
LINE
5
121
100
AcDbEntity
8
0
100
AcDbLine
10
104.85000000000001
20
-49.999999999999986
30
0
11
83
21
-49.999999999999993
31
0
0
LINE
5
122
100
AcDbEntity
8
0
100
AcDbLine
10
83
20
-49.999999999999993
30
0
11
83
21
-44.999999999999993
31
0
0
LINE
5
123
100
AcDbEntity
8
0
100
AcDbLine
10
66.500000000000028
20
-44.999999999999993
30
0
11
83
21
-44.999999999999993
31
0
0
LINE
5
124
100
AcDbEntity
8
0
100
AcDbLine
10
66.500000000000028
20
-44.999999999999993
30
0
11
66.500000000000028
21
-49.999999999999993
31
0
0
LINE
5
125
100
AcDbEntity
8
0
100
AcDbLine
10
66.500000000000028
20
-49.999999999999993
30
0
11
50.000000000000014
21
-49.999999999999993
31
0
0
LINE
5
126
100
AcDbEntity
8
0
100
AcDbLine
10
50.000000000000014
20
-44.999999999999993
30
0
11
50.000000000000014
21
-49.999999999999993
31
0
0
LINE
5
127
100
AcDbEntity
8
0
100
AcDbLine
10
50.000000000000014
20
-44.999999999999993
30
0
11
33.500000000000007
21
-45
31
0
0
LINE
5
128
100
AcDbEntity
8
0
100
AcDbLine
10
33.500000000000007
20
-45
30
0
11
33.500000000000007
21
-50
31
0
0
LINE
5
129
100
AcDbEntity
8
0
100
AcDbLine
10
33.500000000000007
20
-50
30
0
11
17.000000000000014
21
-50
31
0
0
LINE
5
130
100
AcDbEntity
8
0
100
AcDbLine
10
17.000000000000014
20
-50
30
0
11
17.000000000000014
21
-45
31
0
0
LINE
5
131
100
AcDbEntity
8
0
100
AcDbLine
10
17.000000000000014
20
-45
30
0
11
0.50000000000001066
21
-45
31
0
0
LINE
5
132
100
AcDbEntity
8
0
100
AcDbLine
10
0.50000000000001066
20
-45
30
0
11
0.50000000000001155
21
-50
31
0
0
LINE
5
133
100
AcDbEntity
8
0
100
AcDbLine
10
0.50000000000001155
20
-50
30
0
11
-15.999999999999989
21
-50
31
0
0
LINE
5
134
100
AcDbEntity
8
0
100
AcDbLine
10
-15.999999999999989
20
-50
30
0
11
-15.999999999999989
21
-45
31
0
0
LINE
5
135
100
AcDbEntity
8
0
100
AcDbLine
10
-15.999999999999989
20
-45
30
0
11
-32.499999999999993
21
-45
31
0
0
LINE
5
136
100
AcDbEntity
8
0
100
AcDbLine
10
-32.499999999999993
20
-45
30
0
11
-32.499999999999993
21
-50
31
0
0
LINE
5
137
100
AcDbEntity
8
0
100
AcDbLine
10
-32.499999999999993
20
-50
30
0
11
-48.999999999999993
21
-50.000000000000007
31
0
0
LINE
5
138
100
AcDbEntity
8
0
100
AcDbLine
10
-48.999999999999993
20
-50.000000000000007
30
0
11
-48.999999999999993
21
-45.000000000000007
31
0
0
LINE
5
139
100
AcDbEntity
8
0
100
AcDbLine
10
-48.999999999999993
20
-45.000000000000007
30
0
11
-65.5
21
-45.000000000000007
31
0
0
LINE
5
140
100
AcDbEntity
8
0
100
AcDbLine
10
-65.5
20
-45.000000000000007
30
0
11
-65.5
21
-50.000000000000007
31
0
0
LINE
5
141
100
AcDbEntity
8
0
100
AcDbLine
10
-65.5
20
-50.000000000000007
30
0
11
-82.000000000000014
21
-50.000000000000007
31
0
0
LINE
5
142
100
AcDbEntity
8
0
100
AcDbLine
10
-82.000000000000014
20
-45.000000000000007
30
0
11
-82.000000000000014
21
-50.000000000000007
31
0
0
LINE
5
143
100
AcDbEntity
8
0
100
AcDbLine
10
-82.000000000000014
20
-45.000000000000007
30
0
11
-98.500000000000014
21
-45.000000000000007
31
0
0
LINE
5
144
100
AcDbEntity
8
0
100
AcDbLine
10
-98.500000000000014
20
-45.000000000000007
30
0
11
-98.500000000000014
21
-50.000000000000007
31
0
0
LINE
5
145
100
AcDbEntity
8
0
100
AcDbLine
10
-98.500000000000014
20
-50.000000000000007
30
0
11
-103.50000000000001
21
-50.000000000000014
31
0
0
LINE
5
146
100
AcDbEntity
8
0
100
AcDbLine
10
-103.50000000000001
20
-50.000000000000014
30
0
11
-103.50000000000001
21
-31.999999999999993
31
0
0
LINE
5
147
100
AcDbEntity
8
0
100
AcDbLine
10
-103.50000000000001
20
-31.999999999999993
30
0
11
-98.500000000000014
21
-31.999999999999993
31
0
0
LINE
5
148
100
AcDbEntity
8
0
100
AcDbLine
10
-98.500000000000014
20
-31.999999999999993
30
0
11
-98.500000000000014
21
-18.999999999999993
31
0
0
LINE
5
149
100
AcDbEntity
8
0
100
AcDbLine
10
-98.500000000000014
20
-18.999999999999993
30
0
11
-103.50000000000001
21
-18.999999999999993
31
0
0
LINE
5
150
100
AcDbEntity
8
0
100
AcDbLine
10
-103.50000000000001
20
-18.999999999999993
30
0
11
-103.50000000000001
21
-5.9999999999999964
31
0
0
LINE
5
151
100
AcDbEntity
8
0
100
AcDbLine
10
-103.50000000000001
20
-5.9999999999999964
30
0
11
-98.500000000000014
21
-5.9999999999999964
31
0
0
LINE
5
152
100
AcDbEntity
8
0
100
AcDbLine
10
-98.500000000000014
20
-5.9999999999999964
30
0
11
-98.500000000000014
21
7.0000000000000036
31
0
0
LINE
5
153
100
AcDbEntity
8
0
100
AcDbLine
10
-98.500000000000014
20
7.0000000000000036
30
0
11
-103.50000000000001
21
7.0000000000000036
31
0
0
LINE
5
154
100
AcDbEntity
8
0
100
AcDbLine
10
-103.50000000000001
20
7.0000000000000036
30
0
11
-103.50000000000001
21
20.000000000000004
31
0
0
LINE
5
155
100
AcDbEntity
8
0
100
AcDbLine
10
-103.50000000000001
20
20.000000000000004
30
0
11
-98.500000000000014
21
20.000000000000004
31
0
0
LINE
5
156
100
AcDbEntity
8
0
100
AcDbLine
10
-98.500000000000014
20
20.000000000000004
30
0
11
-98.500000000000014
21
33.000000000000007
31
0
0
LINE
5
157
100
AcDbEntity
8
0
100
AcDbLine
10
-98.500000000000014
20
33.000000000000007
30
0
11
-103.50000000000001
21
33.000000000000007
31
0
0
LINE
5
158
100
AcDbEntity
8
0
100
AcDbLine
10
-103.50000000000001
20
33.000000000000007
30
0
11
-103.50000000000001
21
44.999999999999993
31
0
0
LINE
5
159
100
AcDbEntity
8
0
100
AcDbLine
10
-103.50000000000001
20
44.999999999999993
30
0
11
98.500000000000014
21
45.000000000000014
31
0
0
CIRCLE
5
160
100
AcDbEntity
8
0
100
AcDbCircle
10
61.499999999999986
20
-8.9999999999999893
30
0
40
24.000000000000004
210
0
220
0
230
1
0
ENDSEC
0
SECTION
2
OBJECTS
0
DICTIONARY
5
C
100
AcDbDictionary
3
ACAD_GROUP
350
D
3
ACAD_MLINESTYLE
350
17
0
DICTIONARY
5
D
100
AcDbDictionary
0
DICTIONARY
5
1A
330
C
100
AcDbDictionary
0
DICTIONARY
5
17
100
AcDbDictionary
0
ENDSEC
0
EOF
